<?xml version="1.0" encoding="UTF-8"?> <svg xmlns="http://www.w3.org/2000/svg" xmlns:xlink="http://www.w3.org/1999/xlink" width="48px" height="48px" viewBox="0 0 48 48"><!-- Generator: Sketch 53.2 (72643) - https://sketchapp.com --><title>Atoms / Icons / Agency Lead Generator</title><desc>Created with Sketch.</desc><defs><linearGradient x1="32.8061297%" y1="0%" x2="77.9653696%" y2="93.736854%" id="linearGradient-1"><stop stop-color="#735FC7" offset="0%"></stop><stop stop-color="#6854BA" offset="50.1061236%"></stop><stop stop-color="#5845A6" offset="100%"></stop></linearGradient><path d="M23.5,27 C29.3090278,27 34,31.6909722 34,37.5 C34,43.3090278 29.3090278,48 23.5,48 C17.6909722,48 13,43.3090278 13,37.5 C13,31.6909722 17.6909722,27 23.5,27 Z M24.875,44.5679012 C26.8865741,44.2469136 29,43.1851852 29,40.6666667 C29,34.8888889 20.75,38 20.75,35.3333333 C20.75,34.4444444 22.125,34 23.5,34 C24.875,34 26.25,34.4444444 27.1666667,34.8888889 L28.5416667,32.6666667 C28.5416667,32.6666667 27.2175926,31.7037037 24.875,31.4074074 L24.875,30 L22.125,30 L22.125,31.4320988 C20.1134259,31.7530864 18,32.8148148 18,35.3333333 C18,41.1111111 26.25,38 26.25,40.6666667 C26.25,41.5555556 24.875,42 23.5,42 C22.125,42 20.75,41.5555556 19.8333333,41.1111111 L18.4583333,43.3333333 C18.4583333,43.3333333 19.7824074,44.2962963 22.125,44.5925926 L22.125,46 L24.875,46 L24.875,44.5679012 Z" id="path-2"></path><linearGradient x1="36.8581325%" y1="0%" x2="88.2167228%" y2="100%" id="linearGradient-3"><stop stop-color="#735FC7" offset="0%"></stop><stop stop-color="#6854BA" offset="50.1061236%"></stop><stop stop-color="#5845A6" offset="100%"></stop></linearGradient><path d="M16.1858359,10.0074956 C17.0456155,7.36136606 21.6366926,9.43819522 22.3245163,7.32129163 C22.3245163,7.32129163 21.2527064,5.21774617 22.1984639,2.30700373 C22.7668738,0.55761812 24.6561692,-0.405025994 26.4055548,0.163383847 C28.1549404,0.731793688 29.1175845,2.62108914 28.5491747,4.37047475 C27.6034172,7.28121719 25.4998717,8.35302714 25.4998717,8.35302714 C24.812048,10.4699307 29.747037,11.4883081 28.8872574,14.1344376 L28.7153015,14.6636635 C28.667536,14.8106707 28.5117178,14.890064 28.3647106,14.8422985 L16.1925149,10.8873124 C16.0455077,10.8395468 15.9661144,10.6837286 16.01388,10.5367215 L16.1858359,10.0074956 Z" id="path-4"></path><linearGradient x1="36.0494271%" y1="0%" x2="90.5684488%" y2="100%" id="linearGradient-5"><stop stop-color="#735FC7" offset="0%"></stop><stop stop-color="#6854BA" offset="50.1061236%"></stop><stop stop-color="#5845A6" offset="100%"></stop></linearGradient><path d="M33.0712627,29.1442075 C32.3042826,26.0680184 37.9948189,25.3026921 37.3812349,22.8417409 C35.5355215,23.3019289 34.3058727,22.3015473 34.3058727,22.3015473 C34.3058727,22.3015473 35.0753334,21.4562155 34.2316553,18.0724075 C33.7245963,16.0387047 34.9690033,13.9676636 37.0027061,13.4606045 C39.0364089,12.9535455 41.10745,14.1979526 41.6145091,16.2316553 C42.4581871,19.6154633 43.5344399,20.0006071 43.5344399,20.0006071 C43.5344399,20.0006071 42.9183752,21.4611767 41.0726618,21.9213648 C41.6862458,24.382316 47.0699901,22.3865141 47.8369702,25.4627031 L47.9903662,26.0779409 C48.0329762,26.2488403 47.9303447,26.4196478 47.7594453,26.4622579 L33.6089756,29.9903662 C33.4380762,30.0329762 33.2672687,29.9303447 33.2246587,29.7594453 L33.0712627,29.1442075 Z" id="path-6"></path><linearGradient x1="0%" y1="18.6558072%" x2="57.5801965%" y2="75.0794355%" id="linearGradient-7"><stop stop-color="#735FC7" offset="0%"></stop><stop stop-color="#6854BA" offset="50.1061236%"></stop><stop stop-color="#5845A6" offset="100%"></stop></linearGradient><path d="M0.98766623,15 L10.1187919,15 L19.2570132,15 C19.809298,15 20.2570132,15.4477153 20.2570132,16 C20.2570132,16.2136987 20.1885555,16.4217774 20.0616756,16.5937327 L12.8000245,26.4351602 C12.6731445,26.6071155 12.6046868,26.8151942 12.6046868,27.0288929 L12.6046868,29.0688797 C12.6046868,29.5137912 12.3107479,29.9051954 11.8834762,30.029232 L8.50975678,31.0086196 C7.97936887,31.1625907 7.42458625,30.8574446 7.27061513,30.3270567 C7.24431562,30.2364622 7.2309674,30.142602 7.2309674,30.0482673 L7.2309674,27.0141689 C7.2309674,26.8095847 7.16821858,26.6099228 7.05118622,26.442119 L0.167447414,16.5720499 C-0.148487024,16.1190556 -0.0373780179,15.4957156 0.415616326,15.1797812 C0.583420127,15.0627488 0.783082042,15 0.98766623,15 Z" id="path-8"></path></defs><g id="Tools" stroke="none" stroke-width="1" fill="none" fill-rule="evenodd"><g id="Dropdowns---tools" transform="translate(-1064.000000, -88.000000)"><g id="Group-40" transform="translate(150.000000, 88.000000)"><g id="Group-39" transform="translate(817.000000, 0.000000)"><g id="Atoms-/-Icons-/-Agency-Lead-Generator" transform="translate(97.000000, 0.000000)"><g><g id="💲-copy-10"><use fill="#FFFFFF" xlink:href="#path-2"></use><use fill="url(#linearGradient-1)" xlink:href="#path-2"></use></g><g id="👤-copy"><use fill="#FFFFFF" xlink:href="#path-4"></use><use fill-opacity="0.7" fill="url(#linearGradient-3)" xlink:href="#path-4"></use></g><g id="👧"><use fill="#FFFFFF" xlink:href="#path-6"></use><use fill-opacity="0.8" fill="url(#linearGradient-5)" xlink:href="#path-6"></use></g><g id="Rectangle-4"><use fill="#FFFFFF" xlink:href="#path-8"></use><use fill-opacity="0.9" fill="url(#linearGradient-7)" xlink:href="#path-8"></use></g></g></g></g></g></g></g></svg> 