<svg width="28" height="26" xmlns="http://www.w3.org/2000/svg"><g fill="none"><path d="M14 25.518c-.33.041-.635-.347-.941-.637-3.083-2.913-6.168-5.814-9.194-8.81-1.393-1.377-2.85-2.707-3.495-4.726-.968-3.03 0-6.632 2.462-8.696A7.568 7.568 0 017.562.883h.117c2.45.014 4.863 1.33 6.284 3.444a8.084 8.084 0 00-.85 1.68 5.194 5.194 0 00-.07-.144c-1.024-2-3.121-3.336-5.334-3.364h-.074C5.424 2.506 3.26 3.843 2.22 5.934c-1.019 2.048-.938 4.656.498 6.575.846 1.13 1.9 2.083 2.916 3.077a632.29 632.29 0 007.34 7.029l.511.547c.055-.873-.144-2.199-.09-3.073.166 2.811.09 5 .09 5a.52.52 0 00.305.397.474.474 0 00.209.032z" fill="#9B9B9B"/><path d="M20.34.882c2.6.011 5.164 1.471 6.545 3.817 1.449 2.46 1.513 5.8.033 8.194-.746 1.207-1.79 2.184-2.81 3.186-3.196 3.145-6.46 6.197-9.716 9.251l-.097.091a.502.502 0 01-.549.034c-.313-.188-.266-.716-.294-1.167-.291-4.67-.63-9.342-.759-14.015-.049-1.766-.012-3.535.831-5.174C14.816 2.587 17.451.906 20.269.882h.07zm-.042 4.244h-.045a3.449 3.449 0 00-2.364.99c-.818.804-1.234 2.034-1.086 3.2.193 1.526 1.38 2.849 2.81 3.138 1.559.316 3.174-.591 3.83-2.049a3.936 3.936 0 00-.067-3.304c-.589-1.177-1.812-1.963-3.078-1.975z" fill="#A3C559"/><path d="M7.619 5.126c1.265.012 2.489.798 3.078 1.975a3.936 3.936 0 01.066 3.304c-.655 1.458-2.27 2.365-3.83 2.05-1.43-.29-2.616-1.613-2.81-3.138-.147-1.167.27-2.397 1.087-3.2a3.45 3.45 0 012.409-.991zm-.036 1.63c-.88.01-1.711.71-1.9 1.624-.266 1.29.862 2.741 2.26 2.477.794-.15 1.466-.87 1.588-1.717.166-1.15-.72-2.363-1.91-2.383h-.038z" fill="#9B9B9B"/></g></svg>