<?xml version="1.0" encoding="UTF-8"?> <svg xmlns="http://www.w3.org/2000/svg" xmlns:xlink="http://www.w3.org/1999/xlink" width="24px" height="24px" viewBox="0 0 24 24" version="1.1"><!-- Generator: Sketch 64 (93537) - https://sketch.com --><title>Atoms / Tools Menu / Icons / 24 / Blue / CT</title><desc>Created with Sketch.</desc><defs><linearGradient x1="50.1319645%" y1="0.593840318%" x2="71.8484064%" y2="98.3178288%" id="linearGradient-1"><stop stop-color="#9FCDDD" offset="0%"></stop><stop stop-color="#6CADC4" offset="47.6314126%"></stop><stop stop-color="#4A93AE" offset="100%"></stop></linearGradient><path d="M12,0 C16.4166667,0 20,3.58333333 20,8 C20,9.41666667 19.6111111,10.7777778 18.9722222,11.9166667 L12.4444444,23.75 C12.3611111,23.8888889 12.1666667,24 12,24 C11.8055556,24 11.6388889,23.8888889 11.5555556,23.75 L5.02777778,11.9166667 C4.36111111,10.7777778 4,9.41666667 4,8 C4,3.58333333 7.58333333,0 12,0 Z M12,11 C13.6666667,11 15,9.66666667 15,8 C15,6.33333333 13.6666667,5 12,5 C10.3333333,5 9,6.33333333 9,8 C9,9.66666667 10.3333333,11 12,11 Z" id="path-2"></path></defs><g id="Atoms-/-Tools-Menu-/-Icons-/-24-/-Blue-/-CT" stroke="none" stroke-width="1" fill="none" fill-rule="evenodd"><g id="Atoms-/-Icons-/-24-/-Blue-/-CT"><use fill="#FFFFFF" xlink:href="#path-2"></use><use fill="url(#linearGradient-1)" xlink:href="#path-2"></use></g></g></svg> 