<?xml version="1.0" encoding="UTF-8"?> <svg xmlns="http://www.w3.org/2000/svg" xmlns:xlink="http://www.w3.org/1999/xlink" width="24px" height="24px" viewBox="0 0 24 24" version="1.1"><!-- Generator: Sketch 64 (93537) - https://sketch.com --><title>Atoms / Icons / 24 / Blue / G</title><desc>Created with Sketch.</desc><defs><linearGradient x1="50.2851621%" y1="0.593840318%" x2="97.2122214%" y2="98.3178288%" id="linearGradient-1"><stop stop-color="#9FCDDD" offset="0%"></stop><stop stop-color="#6CADC4" offset="47.6314126%"></stop><stop stop-color="#4A93AE" offset="100%"></stop></linearGradient></defs><g id="Atoms-/-Icons-/-24-/-Blue-/-G" stroke="none" stroke-width="1" fill="none" fill-rule="evenodd"><path d="M12,10.2857143 L12,14.4 L18.8057143,14.4 C18.5314286,16.1657143 16.7485714,19.5771429 12,19.5771429 C7.90285714,19.5771429 4.56,16.1828571 4.56,12 C4.56,7.81714286 7.90285714,4.42285714 12,4.42285714 C14.3314286,4.42285714 15.8914286,5.41714286 16.7828571,6.27428571 L20.04,3.13714286 C17.9485714,1.18285714 15.24,0 12,0 C5.36571429,0 0,5.36571429 0,12 C0,18.6342857 5.36571429,24 12,24 C18.9257143,24 23.52,19.1314286 23.52,12.2742857 C23.52,11.4857143 23.4342857,10.8857143 23.3314286,10.2857143 L12,10.2857143 L12,10.2857143 Z" fill="url(#linearGradient-1)"></path></g></svg> 