<?xml version="1.0" encoding="UTF-8"?> <svg xmlns="http://www.w3.org/2000/svg" xmlns:xlink="http://www.w3.org/1999/xlink" width="24px" height="24px" viewBox="0 0 24 24" version="1.1"><!-- Generator: Sketch 64 (93537) - https://sketch.com --><title>Atoms / Icons / Reputation Manager / Get Reviews</title><desc>Created with Sketch.</desc><defs><linearGradient x1="81.1479764%" y1="100%" x2="35.6393413%" y2="37.6931253%" id="linearGradient-1"><stop stop-color="#D18E5E" stop-opacity="0.981261322" offset="0%"></stop><stop stop-color="#FFD84D" offset="100%"></stop></linearGradient><path d="M19.4997281,8.27624574 L17.6574997,9.84396532 C17.3211061,10.1302333 17.1590835,10.0093249 17.2948027,9.57649064 L18.0298673,7.23222923 L16.2462734,6.09286076 C15.8783556,5.85783314 15.9288682,5.6673056 16.356322,5.6673056 L18.5198209,5.6673056 L19.253721,3.3248139 C19.3895869,2.89115139 19.6102311,2.89230639 19.7457352,3.3248139 L20.4796353,5.6673056 L22.6431342,5.6673056 C23.0718301,5.6673056 23.1214163,5.85763143 22.7531828,6.09286076 L20.9695888,7.23222923 L21.7034889,9.57649064 C21.8393549,10.0104808 21.6779679,10.1310847 21.3407878,9.84396532 L19.4997281,8.27624574 Z" id="path-2"></path><path d="M6.99945618,10.5524915 L3.31499948,13.6879306 C2.64221216,14.2604665 2.31816699,14.0186498 2.5896053,13.1529813 L4.05973467,8.46445846 L0.492546739,6.18572152 C-0.2432887,5.71566627 -0.14226368,5.33461121 0.712643961,5.33461121 L5.03964184,5.33461121 L6.50744193,0.64962781 C6.7791739,-0.21769721 7.22046218,-0.215387226 7.49147043,0.64962781 L8.95927052,5.33461121 L13.2862684,5.33461121 C14.1436602,5.33461121 14.2428326,5.71526286 13.5063656,6.18572152 L9.93917769,8.46445846 L11.4069778,13.1529813 C11.6787098,14.0209615 11.3559358,14.2621693 10.6815756,13.6879306 L6.99945618,10.5524915 Z" id="path-3"></path><path d="M6.99968925,22.0299951 L4.89428542,23.8216747 C4.50983552,24.148838 4.32466685,24.010657 4.47977446,23.5159893 L5.31984838,20.8368334 L3.28145528,19.534698 C2.86097789,19.266095 2.91870647,19.0483493 3.40722512,19.0483493 L5.87979534,19.0483493 L6.71853825,16.3712159 C6.87381366,15.8756016 7.12597839,15.8769216 7.28084024,16.3712159 L8.11958315,19.0483493 L10.5921534,19.0483493 C11.0820915,19.0483493 11.1387615,19.2658645 10.7179232,19.534698 L8.67953011,20.8368334 L9.51827302,23.5159893 C9.67354843,24.011978 9.48910619,24.1498111 9.10375748,23.8216747 L6.99968925,22.0299951 Z" id="path-4"></path></defs><g id="Atoms-/-Icons-/-Reputation-Manager-/-Get-Reviews" stroke="none" stroke-width="1" fill="none" fill-rule="evenodd"><g id="Star-1"><use fill="#D18E5E" xlink:href="#path-2"></use><use fill="url(#linearGradient-1)" xlink:href="#path-2"></use></g><g id="Star-1-Copy"><use fill="#D18E5E" xlink:href="#path-3"></use><use fill="url(#linearGradient-1)" xlink:href="#path-3"></use></g><g id="Star-1"><use fill="#D18E5E" xlink:href="#path-4"></use><use fill="url(#linearGradient-1)" xlink:href="#path-4"></use></g><path d="M18,12 C21.3137085,12 24,14.6862915 24,18 C24,21.3137085 21.3137085,24 18,24 C14.6862915,24 12,21.3137085 12,18 C12,14.6862915 14.6862915,12 18,12 Z M18,14 C17.4477153,14 17,14.4477153 17,15 L17,15 L17,16.999 L15,17 C14.4477153,17 14,17.4477153 14,18 C14,18.5522847 14.4477153,19 15,19 L15,19 L17,18.999 L17,21 C17,21.5522847 17.4477153,22 18,22 C18.5522847,22 19,21.5522847 19,21 L19,21 L19,18.999 L21,19 C21.5522847,19 22,18.5522847 22,18 C22,17.4477153 21.5522847,17 21,17 L21,17 L19,16.999 L19,15 C19,14.4477153 18.5522847,14 18,14 Z" id="Combined-Shape" fill="#D18E5E"></path></g></svg> 