<svg xmlns="http://www.w3.org/2000/svg" xmlns:xlink="http://www.w3.org/1999/xlink" width="2001" height="228"><defs><rect id="M" width="9.333" height="9.333" x=".333" y=".333" rx="4.667"/><rect id="u" width="14" height="14" rx="7"/><rect id="O" width="14" height="14" rx="7"/><rect id="e" width="14" height="14" rx="7"/><rect id="g" width="9.333" height="9.333" x=".333" y=".333" rx="4.667"/><rect id="i" width="14" height="14" rx="7"/><rect id="k" width="9.333" height="9.333" x=".333" y=".333" rx="4.667"/><rect id="m" width="14" height="14" rx="7"/><rect id="o" width="9.333" height="9.333" x=".333" y=".333" rx="4.667"/><rect id="q" width="14" height="14" rx="7"/><rect id="s" width="9.333" height="9.333" x=".333" y=".333" rx="4.667"/><rect id="Q" width="9.333" height="9.333" x=".333" y=".333" rx="4.667"/><rect id="w" width="9.333" height="9.333" x=".333" y=".333" rx="4.667"/><rect id="y" width="14" height="14" rx="7"/><rect id="A" width="9.333" height="9.333" x=".333" y=".333" rx="4.667"/><rect id="C" width="14" height="14" rx="7"/><rect id="E" width="9.333" height="9.333" x=".333" y=".333" rx="4.667"/><rect id="G" width="14" height="14" rx="7"/><rect id="I" width="9.333" height="9.333" x=".333" y=".333" rx="4.667"/><rect id="K" width="14" height="14" rx="7"/><path id="d" d="M105.471 162c52.15 5.562 62.8 19.559 160.424 19 96.646.206 98.745-42.653 159.294-43 61.107-.184 87.436 70.308 162.684 70 75.037-.584 87.933-54.452 162.684-55 75.749.381 72.422 33.318 164.943 33 92.313-.074 79.013 15.062 154.775 15 76.347.062 48.208-58.872 157.035-59 108.816-.032 107.123-76 163.813-76 98.252 0 65.696 96.012 159.294 96 93.387.201 80.203-43.61 159.295-43 78.112-.327 74.645 62 162.683 61 42.884-.487 67.038-16 102.603-18 8.56-.481 16.786-.815 24.679-1v90H-.334l-.233-90c24.338.65 37.75.983 40.233 1 15.621-1.796 37.584-3.01 65.805 0z"/><path id="a" d="M.405 0h1999v247.944H.405z"/><linearGradient id="c" x1="50%" x2="50%" y1="-2.999%" y2="98.423%"><stop offset="0%" stop-color="#549FBA"/><stop offset="100%" stop-color="#549FBA" stop-opacity="0"/></linearGradient></defs><g fill="none" fill-rule="evenodd" opacity=".365"><g transform="translate(.567 -45)"><mask id="b" fill="#fff"><use xlink:href="#a"/></mask><g stroke-linecap="round" stroke-linejoin="round" mask="url(#b)"><use fill="url(#c)" stroke="#549FBA" xlink:href="#d"/><use stroke="#FFF" stroke-opacity=".702" xlink:href="#d"/></g></g><g transform="translate(98.08 109.512)"><mask id="f" fill="#fff"><use xlink:href="#e"/></mask><g fill="#549FBA" mask="url(#f)"><path d="M0 0h14v14H0z"/></g><g transform="translate(2 2)"><mask id="h" fill="#fff"><use xlink:href="#g"/></mask><g fill="#FFF" mask="url(#h)" opacity=".391"><path d="M-2-2h14v14H-2z"/></g></g></g><g transform="translate(295 125.356)"><mask id="j" fill="#fff"><use xlink:href="#i"/></mask><g fill="#549FBA" mask="url(#j)"><path d="M0 0h14v14H0z"/></g><g transform="translate(2 2)"><mask id="l" fill="#fff"><use xlink:href="#k"/></mask><g fill="#FFF" mask="url(#l)" opacity=".391"><path d="M-2-2h14v14H-2z"/></g></g></g><g transform="translate(491 118.449)"><mask id="n" fill="#fff"><use xlink:href="#m"/></mask><g fill="#549FBA" mask="url(#n)"><path d="M0 0h14v14H0z"/></g><g transform="translate(2 2)"><mask id="p" fill="#fff"><use xlink:href="#o"/></mask><g fill="#FFF" mask="url(#p)" opacity=".391"><path d="M-2-2h14v14H-2z"/></g></g></g><g transform="translate(687 115.173)"><mask id="r" fill="#fff"><use xlink:href="#q"/></mask><g fill="#549FBA" mask="url(#r)"><path d="M0 0h14v14H0z"/></g><g transform="translate(2 2)"><mask id="t" fill="#fff"><use xlink:href="#s"/></mask><g fill="#FFF" mask="url(#t)" opacity=".391"><path d="M-2-2h14v14H-2z"/></g></g></g><g transform="translate(884 132.467)"><mask id="v" fill="#fff"><use xlink:href="#u"/></mask><g fill="#549FBA" mask="url(#v)"><path d="M0 0h14v14H0z"/></g><g transform="translate(2 2)"><mask id="x" fill="#fff"><use xlink:href="#w"/></mask><g fill="#FFF" mask="url(#x)" opacity=".391"><path d="M-2-2h14v14H-2z"/></g></g></g><g transform="translate(1080 148.602)"><mask id="z" fill="#fff"><use xlink:href="#y"/></mask><g fill="#549FBA" mask="url(#z)"><path d="M0 0h14v14H0z"/></g><g transform="translate(2 2)"><mask id="B" fill="#fff"><use xlink:href="#A"/></mask><g fill="#FFF" mask="url(#B)" opacity=".391"><path d="M-2-2h14v14H-2z"/></g></g></g><g transform="translate(1277 81.602)"><mask id="D" fill="#fff"><use xlink:href="#C"/></mask><g fill="#549FBA" mask="url(#D)"><path d="M0 0h14v14H0z"/></g><g transform="translate(2 2)"><mask id="F" fill="#fff"><use xlink:href="#E"/></mask><g fill="#FFF" mask="url(#F)" opacity=".391"><path d="M-2-2h14v14H-2z"/></g></g></g><g transform="translate(1473 73.048)"><mask id="H" fill="#fff"><use xlink:href="#G"/></mask><g fill="#549FBA" mask="url(#H)"><path d="M0 0h14v14H0z"/></g><g transform="translate(2 2)"><mask id="J" fill="#fff"><use xlink:href="#I"/></mask><g fill="#FFF" mask="url(#J)" opacity=".391"><path d="M-2-2h14v14H-2z"/></g></g></g><g transform="translate(1669 70.605)"><mask id="L" fill="#fff"><use xlink:href="#K"/></mask><g fill="#549FBA" mask="url(#L)"><path d="M0 0h14v14H0z"/></g><g transform="translate(2 2)"><mask id="N" fill="#fff"><use xlink:href="#M"/></mask><g fill="#FFF" mask="url(#N)" opacity=".391"><path d="M-2-2h14v14H-2z"/></g></g></g><g transform="translate(1866 128.032)"><mask id="P" fill="#fff"><use xlink:href="#O"/></mask><g fill="#549FBA" mask="url(#P)"><path d="M0 0h14v14H0z"/></g><g transform="translate(2 2)"><mask id="R" fill="#fff"><use xlink:href="#Q"/></mask><g fill="#FFF" mask="url(#R)" opacity=".391"><path d="M-2-2h14v14H-2z"/></g></g></g></g></svg>