<?xml version="1.0" encoding="UTF-8"?> <svg xmlns="http://www.w3.org/2000/svg" xmlns:xlink="http://www.w3.org/1999/xlink" width="24px" height="24px" viewBox="0 0 24 24" version="1.1"><!-- Generator: Sketch 64 (93537) - https://sketch.com --><title>Atoms / Icons / 24 / Blue / LSRC</title><desc>Created with Sketch.</desc><defs><linearGradient x1="50.2969202%" y1="0.593840318%" x2="99.1589144%" y2="98.3178288%" id="linearGradient-1"><stop stop-color="#9FCDDD" offset="0%"></stop><stop stop-color="#6CADC4" offset="47.6314126%"></stop><stop stop-color="#4A93AE" offset="100%"></stop></linearGradient></defs><g id="Atoms-/-Icons-/-24-/-Blue-/-LSRC" stroke="none" stroke-width="1" fill="none" fill-rule="evenodd"><path d="M23.0013041,2 C23.5528686,2 24,2.43945834 24,3.00246167 L24,24 L19.5,24 L19.5,3.00246167 C19.5,2.44881738 19.9479289,2 20.4986959,2 L23.0013041,2 Z M16.5013041,0 C17.0528686,0 17.5,0.44746922 17.5,1.00069463 L17.5,24 L13,24 L13,1.00069463 C13,0.448026248 13.4479289,0 13.9986959,0 L16.5013041,0 Z M3.50130415,13 C4.05286864,13 4.5,13.444837 4.5,13.9955775 L4.5,24 L0,24 L0,13.9955775 C0,13.4457352 0.447928905,13 0.99869585,13 L3.50130415,13 Z M10.0013041,6.5 C10.5528686,6.5 11,6.95017276 11,7.49101692 L11,24 L6.5,24 L6.5,7.49101692 C6.5,6.94369339 6.94792891,6.5 7.49869585,6.5 L10.0013041,6.5 Z" fill="url(#linearGradient-1)"></path></g></svg> 