<?xml version="1.0" encoding="UTF-8"?> <svg xmlns="http://www.w3.org/2000/svg" xmlns:xlink="http://www.w3.org/1999/xlink" width="24px" height="24px" viewBox="0 0 24 24" version="1.1"><!-- Generator: Sketch 64 (93537) - https://sketch.com --><title>Atoms / Icons / Reputation Manager / Monitor Reviews</title><desc>Created with Sketch.</desc><defs><linearGradient x1="81.1479764%" y1="100%" x2="35.6393413%" y2="37.6931253%" id="linearGradient-1"><stop stop-color="#D18E5E" stop-opacity="0.981261322" offset="0%"></stop><stop stop-color="#FFD84D" offset="100%"></stop></linearGradient><path d="M15.9996892,6.02999513 L13.8942854,7.82167465 C13.5098355,8.14883802 13.3246668,8.01065704 13.4797745,7.5159893 L14.3198484,4.8368334 L12.2814553,3.53469801 C11.8609779,3.26609501 11.9187065,3.04834926 12.4072251,3.04834926 L14.8797953,3.04834926 L15.7185382,0.371215891 C15.8738137,-0.124398406 16.1259784,-0.123078415 16.2808402,0.371215891 L17.1195832,3.04834926 L19.5921534,3.04834926 C20.0820915,3.04834926 20.1387615,3.26586449 19.7179232,3.53469801 L17.6795301,4.8368334 L18.518273,7.5159893 C18.6735484,8.01197803 18.4891062,8.14981106 18.1037575,7.82167465 L15.9996892,6.02999513 Z" id="path-2"></path><path d="M21.4998058,11.768747 L20.1839284,12.8885467 C19.9436472,13.0930238 19.8279168,13.0066606 19.924859,12.6974933 L20.4499052,11.0230209 L19.1759095,10.2091863 C18.9131112,10.0413094 18.9491915,9.90521829 19.2545157,9.90521829 L20.7998721,9.90521829 L21.3240864,8.23200993 C21.4211335,7.922251 21.5787365,7.92307599 21.6755252,8.23200993 L22.1997395,9.90521829 L23.7450959,9.90521829 C24.0513072,9.90521829 24.0867259,10.0411653 23.823702,10.2091863 L22.5497063,11.0230209 L23.0739206,12.6974933 C23.1709678,13.0074863 23.0556914,13.0936319 22.8148484,12.8885467 L21.4998058,11.768747 Z" id="path-3"></path><path d="M5.49957271,10.2912433 L2.60464245,12.7548026 C2.07602384,13.2046523 1.82141692,13.0146534 2.03468988,12.3344853 L3.18979153,8.65064593 L0.387001009,6.86020976 C-0.191155407,6.49088064 -0.111778606,6.19148024 0.559934541,6.19148024 L3.95971859,6.19148024 L5.11299009,2.51042185 C5.32649378,1.82895219 5.67322028,1.83076718 5.88615534,2.51042185 L7.03942684,6.19148024 L10.4392109,6.19148024 C11.1128759,6.19148024 11.190797,6.49056368 10.6121444,6.86020976 L7.8093539,8.65064593 L8.9626254,12.3344853 C9.17612909,13.0164698 8.92252101,13.2059902 8.39266654,12.7548026 L5.49957271,10.2912433 Z" id="path-4"></path></defs><g id="Atoms-/-Icons-/-Reputation-Manager-/-Monitor-Reviews" stroke="none" stroke-width="1" fill="none" fill-rule="evenodd"><path d="M10.144457,13.1557454 C10.4601578,12.2947433 11.649588,12.289589 11.9976046,13.0931909 L12.0396849,13.2077815 L13.919,19.359 L14.7277904,17.1557454 C14.857772,16.80125 15.1744598,16.5536925 15.5423326,16.507726 L15.6666667,16.5 L23,16.5 C23.5522847,16.5 24,16.9477153 24,17.5 C24,18.0128358 23.6139598,18.4355072 23.1166211,18.4932723 L23,18.5 L16.365,18.5 L14.7722096,22.8442546 C14.4565089,23.7052567 13.2670787,23.710411 12.9190621,22.9068091 L12.8769818,22.7922185 L10.996,16.64 L10.1888763,18.8442546 C9.94522287,19.508764 9.1185143,19.706503 8.60081523,19.2610472 L8.51284586,19.1757246 L7.416,17.979 L6.32048747,19.1757246 C6.15813611,19.3528352 5.93845812,19.4645708 5.7024868,19.4928807 L5.58333333,19.5 L1,19.5 C0.44771525,19.5 0,19.0522847 0,18.5 C0,17.9871642 0.38604019,17.5644928 0.883378875,17.5067277 L1,17.5 L5.143,17.5 L6.67951253,15.8242754 C7.04753934,15.4227916 7.6615634,15.3941142 8.06473267,15.7382431 L8.15382081,15.8242754 L8.876,16.613 L10.144457,13.1557454 Z" id="Path-6" fill="#D18E5E" fill-rule="nonzero"></path><g id="Star-1"><use fill="#D18E5E" xlink:href="#path-2"></use><use fill="url(#linearGradient-1)" xlink:href="#path-2"></use></g><g id="Star-1-Copy-3"><use fill="#D18E5E" xlink:href="#path-3"></use><use fill="url(#linearGradient-1)" xlink:href="#path-3"></use></g><g id="Star-1-Copy"><use fill="#D18E5E" xlink:href="#path-4"></use><use fill="url(#linearGradient-1)" xlink:href="#path-4"></use></g></g></svg> 