<svg width="31" height="26" xmlns="http://www.w3.org/2000/svg"><path d="M6.74 23.416c1.13 0 2.064-.357 2.801-1.07.737-.712 1.106-1.707 1.106-2.985 0-1.229-.405-2.162-1.216-2.801-.811-.64-1.708-.959-2.691-.959-.295 0-.516.025-.664.074 0-2.064.467-3.797 1.401-5.197.934-1.4 2.335-2.716 4.202-3.944h0L9.91 3.659C7.355 5.133 5.414 6.952 4.087 9.114s-1.99 4.718-1.99 7.667c0 2.162.405 3.809 1.216 4.94.81 1.13 1.954 1.695 3.428 1.695zm16.046 0c1.13 0 2.065-.357 2.802-1.07.737-.712 1.106-1.707 1.106-2.985 0-1.229-.406-2.162-1.217-2.801-.81-.64-1.708-.959-2.69-.959-.296 0-.517.025-.664.074 0-2.064.467-3.797 1.4-5.197.934-1.4 2.335-2.716 4.203-3.944l-1.77-2.875c-2.555 1.474-4.497 3.293-5.824 5.455s-1.99 4.718-1.99 7.667c0 2.162.405 3.809 1.216 4.94.811 1.13 1.954 1.695 3.428 1.695z" stroke="#000" stroke-width="4.096"/></svg>