<?xml version="1.0" encoding="UTF-8"?> <svg xmlns="http://www.w3.org/2000/svg" xmlns:xlink="http://www.w3.org/1999/xlink" width="49px" height="48px" viewBox="0 0 49 48"><!-- Generator: Sketch 53.2 (72643) - https://sketchapp.com --><title>Atoms / Icons / Reputation Manager</title><desc>Created with Sketch.</desc><defs><linearGradient x1="81.1479764%" y1="94.6118866%" x2="35.6393413%" y2="39.019342%" id="linearGradient-1"><stop stop-color="#D18E5E" stop-opacity="0.981261322" offset="0%"></stop><stop stop-color="#FFD84D" offset="100%"></stop></linearGradient><path d="M40.9998567,15.8349714 L39.3183577,17.1793172 C37.5918064,18.559682 36.759285,17.9794725 37.4600081,15.87997 L38.1170686,13.911289 L36.7402497,13.0849952 C34.8471126,11.9488345 35.1050816,11.0277944 37.3168067,11.0277944 L39.077998,11.0277944 L39.7340175,9.06059957 C40.4331212,6.96420889 41.566083,6.96268199 42.2656959,9.06059957 L42.9217154,11.0277944 L44.6829066,11.0277944 C46.8944673,11.0277944 47.1538612,11.948078 45.2594637,13.0849952 L43.8826447,13.911289 L44.5386642,15.87997 C45.2377679,17.9779444 44.4018848,18.5565938 42.680289,17.1793172 L40.9998567,15.8349714 Z" id="path-2"></path><linearGradient x1="81.1479764%" y1="94.5157158%" x2="35.6393413%" y2="39.0430133%" id="linearGradient-3"><stop stop-color="#D18E5E" stop-opacity="0.981261322" offset="0%"></stop><stop stop-color="#FFD84D" offset="100%"></stop></linearGradient><path d="M23.5010078,10.9359669 L20.8025985,13.0933249 C19.0769532,14.4729654 18.2424089,13.90043 18.9460797,11.7920955 L20.0094442,8.60604904 L17.6257328,7.17547163 C15.7283247,6.03674778 15.9885003,5.1136297 18.1915688,5.1136297 L21.1732987,5.1136297 L22.2349784,1.92998839 C22.9341871,-0.1667172 24.0644812,-0.176754461 24.7670372,1.92998839 L25.8287168,5.1136297 L28.8104468,5.1136297 C31.0203575,5.1136297 31.2828986,6.03122177 29.3762828,7.17547163 L26.9925714,8.60604904 L28.0542511,11.7920955 C28.7534598,13.8903852 27.9264196,14.4762963 26.1892022,13.0865224 L23.5010078,10.9359669 Z" id="path-4"></path><linearGradient x1="81.1479764%" y1="94.2922769%" x2="35.6393413%" y2="39.09801%" id="linearGradient-5"><stop stop-color="#D18E5E" stop-opacity="0.981261322" offset="0%"></stop><stop stop-color="#FFD84D" offset="100%"></stop></linearGradient><path d="M13.0011385,29.3045933 L7.16300856,33.9721345 C5.43941949,35.3501311 4.61054459,34.7642707 5.30681493,32.6781096 L7.62917003,25.7198827 L2.11185556,22.4086826 C0.214223761,21.2698245 0.474182727,20.3465976 2.67653481,20.3465976 L9.41982619,20.3465976 L11.7385018,13.3936235 C12.4358368,11.3025365 13.5686081,11.3090372 14.2637753,13.3936235 L16.5824508,20.3465976 L23.3257422,20.3465976 C25.5352377,20.3465976 25.7872639,21.2702982 23.8904215,22.4086826 L18.373107,25.7198827 L20.6917826,32.6781096 C21.3891176,34.7707764 20.5554692,35.3480579 18.835565,33.9721345 L13.0011385,29.3045933 Z" id="path-6"></path><linearGradient x1="81.1479764%" y1="94.1315276%" x2="35.6393413%" y2="39.1375764%" id="linearGradient-7"><stop stop-color="#D18E5E" stop-opacity="0.981261322" offset="0%"></stop><stop stop-color="#FFD84D" offset="100%"></stop></linearGradient><path d="M31.0026098,39.4968932 L21.5318613,47.0686857 C19.8024884,48.4513063 18.9695433,47.8673416 19.6672646,45.776833 L23.4461733,34.4544887 L14.2768595,28.951552 C12.3854239,27.8164125 12.6451047,26.8962001 14.8426106,26.8962001 L25.9649854,26.8962001 L29.7379068,15.5824032 C30.436383,13.4878943 31.5706968,13.4934727 32.2673127,15.5824032 L36.0402341,26.8962001 L47.1626089,26.8962001 C49.3665002,26.8962001 49.6214189,27.8154383 47.72836,28.951552 L38.5590462,34.4544887 L42.3319676,45.776833 C43.0304438,47.8729242 42.2007664,48.4554185 40.4673504,47.0686857 L31.0026098,39.4968932 Z" id="path-8"></path></defs><g id="Tools" stroke="none" stroke-width="1" fill="none" fill-rule="evenodd"><g id="Dropdowns---tools" transform="translate(-789.000000, -88.000000)"><g id="Group-40" transform="translate(150.000000, 88.000000)"><g id="Group-38" transform="translate(545.000000, 0.000000)"><g id="Atoms-/-Icons-/-Reputation-Manager" transform="translate(95.000000, 0.000000)"><g transform="translate(-1.000000, 0.000000)"><g id="Star-1-Copy-3" opacity="0.5"><use fill="#FFFFFF" xlink:href="#path-2"></use><use fill="url(#linearGradient-1)" xlink:href="#path-2"></use></g><g id="Star-1-Copy-2" opacity="0.65"><use fill="#FFFFFF" xlink:href="#path-4"></use><use fill="url(#linearGradient-3)" xlink:href="#path-4"></use></g><g id="Star-1-Copy" opacity="0.8"><use fill="#FFFFFF" xlink:href="#path-6"></use><use fill="url(#linearGradient-5)" xlink:href="#path-6"></use></g><g id="Star-1"><use fill="#FFFFFF" xlink:href="#path-8"></use><use fill="url(#linearGradient-7)" xlink:href="#path-8"></use></g></g></g></g></g></g></g></svg> 