<?xml version="1.0" encoding="UTF-8"?> <svg xmlns="http://www.w3.org/2000/svg" xmlns:xlink="http://www.w3.org/1999/xlink" viewBox="0 0 24 24"><defs><path id="path-1" d="M2 3h20v14H2z"></path><path id="path-4" d="M12 12.045L8.84 14.733c-.576.49-.854.283-.621-.459l1.26-4.019-3.058-1.953c-.63-.403-.544-.73.189-.73h3.709l1.258-4.015c.233-.744.611-.742.843 0l1.258 4.016h3.71c.734 0 .82.326.188.729l-3.058 1.953 1.258 4.019c.233.744-.043.95-.621.459L12 12.045z"></path><path id="path-5" d="M3 14.03L.894 15.822c-.384.327-.57.189-.414-.306l.84-2.68-2.039-1.301c-.42-.269-.362-.487.126-.487H1.88l.839-2.677c.155-.495.407-.494.562 0l.839 2.677h2.472c.49 0 .547.218.126.487L4.68 12.837l.838 2.679c.156.496-.029.634-.414.306L3 14.03z"></path><path id="path-6" d="M21 14.03l-2.106 1.792c-.384.327-.57.189-.414-.306l.84-2.68-2.039-1.301c-.42-.269-.362-.487.126-.487h2.473l.839-2.677c.155-.495.407-.494.562 0l.839 2.677h2.472c.49 0 .547.218.126.487l-2.038 1.302.838 2.679c.156.496-.029.634-.414.306L21 14.03z"></path><linearGradient id="linearGradient-3" x1="81.148%" x2="35.639%" y1="100%" y2="37.693%"><stop offset="0%" stop-color="#D18E5E" stop-opacity=".981"></stop><stop offset="100%" stop-color="#FFD84D"></stop></linearGradient></defs><g id="Atoms-/-Icons-/-Reputation-Manager-/-Showcase-Reviews-v3" fill="none" fill-rule="evenodd" stroke="none" stroke-width="1"><g id="performance-presentation-graph" fill="#D18E5E"><path id="Rectangle" fill-rule="nonzero" d="M22 1a2 2 0 012 2v14a2 2 0 01-2 2H2a2 2 0 01-2-2V3a2 2 0 012-2h20zm0 1H2a1 1 0 00-.993.883L1 3v14a1 1 0 00.883.993L2 18h20a1 1 0 00.993-.883L23 17V3a1 1 0 00-.883-.993L22 2z"></path><rect id="Rectangle" width="2" height="2" x="11" y="0" rx="1"></rect><path id="Rectangle-Copy-3" d="M11 19h2v3h-2z"></path><rect id="Rectangle-Copy-4" width="2" height="6" x="13" y="19" rx="1" transform="rotate(-60 14 22)"></rect><rect id="Rectangle-Copy-5" width="2" height="6" x="9" y="19" rx="1" transform="scale(-1 1) rotate(-60 0 39.32)"></rect></g><mask id="mask-2" fill="#fff"><use xlink:href="#path-1"></use></mask><g id="Star-1-Copy" mask="url(#mask-2)"><use fill="#D18E5E" xlink:href="#path-4"></use><use fill="url(#linearGradient-3)" xlink:href="#path-4"></use></g><g id="Star-1-Copy-2" mask="url(#mask-2)"><use fill="#D18E5E" xlink:href="#path-5"></use><use fill="url(#linearGradient-3)" xlink:href="#path-5"></use></g><g id="Star-1-Copy-3" mask="url(#mask-2)"><use fill="#D18E5E" xlink:href="#path-6"></use><use fill="url(#linearGradient-3)" xlink:href="#path-6"></use></g></g></svg> 